<svg width="178" height="184" viewBox="0 0 178 184" fill="none" xmlns="http://www.w3.org/2000/svg">
<path fill-rule="evenodd" clip-rule="evenodd" d="M127.255 15.3102C171.203 36.7024 189.488 89.6704 168.096 133.618C146.703 177.567 93.7354 195.851 49.7876 174.46C5.84022 153.067 -12.4456 100.099 8.94611 56.1516C9.02263 55.9948 9.1029 55.8423 9.17996 55.6871C8.95039 54.8727 8.70743 54.0646 8.46501 53.2662C7.76507 50.9625 7.0389 48.67 6.46043 46.3315C5.08943 40.7929 3.61141 33.9861 6.31005 28.6343C8.34675 24.5936 11.6383 23.0786 15.9638 22.3845C24.1207 21.0735 32.2038 20.0616 40.4464 19.4606C40.647 19.1631 40.8541 18.8645 41.0714 18.5653C41.3716 18.1522 41.6831 17.7835 42.0127 17.4598C42.2134 16.6763 42.6072 15.9379 43.1525 15.3075C43.3435 15.0875 43.5469 14.8778 43.7411 14.6611C45.3588 12.8545 47.0365 11.1233 48.8265 9.48584C50.8824 7.60593 53.0968 5.98717 55.4198 4.46153C56.4071 3.81242 57.4056 3.18203 58.4058 2.55326C58.4759 2.50884 58.5369 2.47299 58.6086 2.43286C59.2775 2.05827 59.9448 1.68314 60.6137 1.30855C61.8959 0.590947 63.0207 0.168195 64.5003 0.430942C66.8512 -0.533893 69.8291 0.102913 71.632 2.52811C72.7884 4.08426 73.2823 5.85232 73.2716 7.7076C90.9972 4.58995 109.835 6.83053 127.255 15.3102ZM130.356 97.7909C130.412 94.0488 130.246 90.4854 129.647 87.0295C128.887 82.6302 127.416 78.3722 124.79 74.0821C123.546 72.0481 122.094 70.1067 120.445 68.2177C119.454 67.0821 118.378 65.9546 117.22 64.826C113.338 61.0432 116.357 58.0674 120.275 61.916C121.447 63.0681 122.56 64.2422 123.612 65.4462C125.413 67.5102 127.004 69.64 128.376 71.8812C131.308 76.6727 132.949 81.4166 133.796 86.3135C134.444 90.0605 134.623 93.8802 134.562 97.8734C134.478 103.403 130.274 103.117 130.356 97.7909ZM164.638 102.349C164.668 101.633 164.695 100.913 164.718 100.191C164.779 98.256 164.804 96.321 164.794 94.3463C164.783 91.7649 164.65 89.3905 164.415 87.1039C164.177 84.7857 163.841 82.6056 163.424 80.4303C161.705 71.4493 158.56 63.4593 154.168 56.2116C150.279 49.7932 145.399 43.9438 139.654 38.4929C135.933 34.9654 138.997 32.08 142.198 35.0901C148.358 40.8802 153.592 47.1262 157.768 54.0175C162.412 61.6795 165.737 70.1307 167.556 79.6341C168.009 81.9999 168.369 84.3052 168.612 86.6678C168.858 89.0609 168.997 91.569 169.009 94.3239C169.017 96.2953 168.99 98.2843 168.926 100.331C168.903 101.1 168.872 101.884 168.835 102.686C168.555 108.811 164.372 108.401 164.638 102.349ZM155.957 102.224C156.068 100.067 156.134 98.081 156.143 96.1824C156.156 93.5699 156.062 91.0724 155.832 88.454C155.408 83.5924 154.502 79.0829 153.153 74.8003C151.799 70.5027 150.002 66.4357 147.798 62.4731C145.679 58.6598 143.309 55.1691 140.646 51.9097C138.678 49.4995 136.557 47.2241 134.265 45.0456C130.365 41.3398 133.007 38.0327 137.278 42.1008C139.666 44.3767 141.871 46.7446 143.91 49.2394C146.713 52.6722 149.22 56.3678 151.475 60.4262C153.823 64.6484 155.735 68.9711 157.169 73.5251C158.609 78.094 159.576 82.9064 160.029 88.0918C160.267 90.8091 160.365 93.4345 160.35 96.2113C160.341 98.2383 160.272 100.321 160.155 102.562C159.951 106.463 155.732 106.51 155.957 102.224ZM147.402 100.457C147.437 99.8876 147.465 99.3412 147.488 98.8189C147.55 97.4014 147.576 95.9603 147.563 94.4357C147.564 94.433 147.565 94.4303 147.567 94.4277C147.537 90.914 147.187 87.4175 146.531 83.9772C145.869 80.5122 144.9 77.1297 143.641 73.8713C142.35 70.5305 140.744 67.2951 138.842 64.2133C136.954 61.1545 134.783 58.2622 132.35 55.5806C131.375 54.505 130.421 53.5113 129.421 52.5058C129.127 52.2104 128.812 51.8968 128.48 51.5693C124.647 47.7951 127.818 44.998 131.186 48.32C131.589 48.7166 131.993 49.1195 132.408 49.5369C133.477 50.6109 134.478 51.6533 135.473 52.7498C138.097 55.6416 140.424 58.74 142.436 61.9974C144.463 65.2814 146.182 68.7501 147.575 72.3531C148.932 75.8673 149.973 79.4944 150.677 83.1879C151.375 86.8428 151.748 90.5946 151.78 94.3977C151.796 95.8013 151.764 97.3259 151.69 99.011C151.658 99.742 151.619 100.468 151.576 101.193C151.304 105.643 147.085 105.659 147.402 100.457ZM138.786 100.084C138.974 96.9406 139.127 94.3693 138.847 91.3571C138.183 84.2485 136.34 77.3427 133.107 71.0779C130.471 65.9675 126.903 61.2872 122.291 57.2786C119.538 54.8823 122.053 51.4784 125.099 54.1262C130.113 58.4939 133.992 63.5861 136.858 69.1413C140.337 75.8823 142.32 83.3163 143.035 90.9729C143.352 94.3752 143.169 97.4367 142.974 100.706C142.777 104.011 138.58 103.821 138.786 100.084ZM102.472 66.2238C118.301 73.9291 124.887 93.0064 117.182 108.835C109.477 124.665 90.4 131.25 74.5704 123.545C58.7413 115.841 52.1555 96.763 59.8608 80.9344C60.4473 79.7283 61.1023 78.5761 61.8151 77.4791C62.187 77.5198 62.5578 77.5578 62.9308 77.5947C62.9619 77.5979 62.9897 77.5995 63.0207 77.6022C66.6018 77.8815 70.2096 78.6184 73.8126 78.2042C77.0009 77.8382 79.5315 75.8641 80.2534 72.6566C80.5172 71.4846 80.5205 70.1773 80.4825 68.9786C80.4316 67.3502 80.2727 65.7448 80.1614 64.1261C87.3487 62.1691 95.2488 62.7085 102.472 66.2238ZM62.8928 5.37926C62.2255 5.75332 61.5572 6.12738 60.8899 6.50197C59.8967 7.12646 58.9286 7.73811 57.9814 8.35939C55.8928 9.73253 53.9054 11.1629 51.9752 12.9288C50.3056 14.4556 48.7992 16.0064 47.2168 17.7728C46.2969 18.8024 46.1412 18.7248 47.6551 18.781C50.8407 18.8998 53.359 17.8873 55.8404 16.3488C58.7327 14.554 61.3431 12.329 63.1754 9.42322C63.9513 8.19457 64.5019 6.85889 64.1049 5.52375C63.8678 4.72106 63.4542 5.06514 62.8928 5.37926ZM35.1598 150.751C36.9948 152.983 38.2326 154.66 39.6346 156.331C42.5831 159.844 45.9582 162.565 49.5783 164.992C59.4776 171.627 71.4083 174.919 83.2753 175.094C87.7254 175.159 91.5414 174.657 95.9064 173.77C108.305 171.252 122.819 165.259 126.798 152.673C127.285 151.131 127.615 149.49 127.764 147.745C126.496 139.065 119.043 140.643 115.7 147.974C110.805 159.761 105.715 163.88 92.9376 166.86C85.5828 168.577 78.8155 169 70.7469 168.026C59.4086 166.66 50.9707 161.978 42.4044 154.467C39.6672 153.123 37.6396 152.033 35.1598 150.751ZM74.4425 49.1447C78.3008 47.6088 81.938 45.8547 85.5608 43.7286C86.9618 42.9061 88.2167 41.9782 89.2955 40.7052C89.7996 40.1096 90.9442 38.2687 90.8051 37.4591C90.7259 36.9994 90.0907 36.9716 89.5764 36.8737C87.9197 36.5563 84.9069 37.5222 84.0063 37.7967C80.0843 38.9938 76.5498 41.2135 74.564 45.0584C73.9255 46.2946 73.3139 47.5409 72.9495 48.8931C73.156 50.0073 73.2491 49.6188 74.4425 49.1447ZM40.7985 24.113C39.9375 26.2193 38.7666 28.881 37.9051 30.9873C36.0289 31.1976 34.1522 31.4084 32.275 31.6187C29.6026 32.0548 25.778 32.4792 23.3175 33.4756C22.2328 33.9149 21.3493 34.5303 21.2075 35.4315C20.6183 39.1645 29.9547 48.1285 32.6185 50.4327C32.6185 52.8103 32.1685 55.5373 33.9291 57.3235C34.7756 58.1846 35.6821 58.6084 37.2624 58.9198C40.4228 59.5438 43.8712 59.3527 47.0386 58.8481C51.8879 61.5596 59.3744 65.4248 64.8867 64.9614C68.1392 64.6864 68.2591 62.0107 68.166 59.4405C68.0943 57.4434 68.022 55.4463 67.9487 53.4487C70.0362 52.7402 72.1238 52.0317 74.2108 51.3232C74.7534 55.6299 75.1954 59.6299 75.4753 63.9613C75.5395 65.1305 75.7632 67.2983 75.8194 69.1236C75.8515 70.1447 75.8311 71.0581 75.7022 71.6323C75.418 72.8931 74.473 73.433 73.2812 73.5695C70.4782 73.8911 65.0109 73.0777 63.383 72.9514C60.6308 72.6828 52.5922 71.5333 50.2199 72.2028C46.6924 73.197 45.6136 79.8508 45.01 83.0482C43.9269 88.7885 43.7481 94.2425 45.3294 100.482C46.1717 103.81 47.1777 106.424 48.5145 108.949C49.5039 110.816 50.6753 112.634 52.0982 114.655C58.2362 122.667 64.6031 127.54 73.9031 131.281C76.9956 132.526 79.9521 133.454 83.956 134.637C85.4714 135.084 86.9329 135.566 87.7318 136.012C88.7871 136.601 89.5379 137.508 89.6438 139.178C89.7573 140.961 88.9798 142.111 86.5637 142.965C83.659 143.991 81.8315 143.141 78.4367 141.997C75.3185 140.945 72.4657 139.752 68.974 138.234C64.945 136.482 60.9332 134.724 56.9267 133.211C53.1198 131.774 49.3894 130.742 46.8417 131.049C45.5569 131.203 44.3555 131.637 43.5373 132.831C43.114 133.449 43.0744 134.168 43.1975 134.889C43.9327 139.226 47.9569 143.011 51.0419 145.806C53.9321 148.424 57.0128 150.661 61.09 152.127C65.0323 153.544 68.525 154.023 73.6243 153.961C74.8706 153.945 76.2041 153.895 77.8833 153.832C82.304 153.664 87.1079 156.106 82.9745 160.728C81.5217 162.351 79.919 162.586 76.8859 162.944C74.1883 163.262 71.8252 163.081 68.2987 162.333C62.6873 161.144 57.6769 159.305 51.9842 157.05C44.3817 154.059 36.6416 151.287 30.7606 145.353C21.7876 136.301 14.1251 120.797 12.136 110.909C9.6316 98.4561 11.5955 82.6998 14.0683 70.4208C14.4702 68.101 14.863 65.7984 15.2167 63.47C15.1381 59.4833 14.0801 55.6989 12.9291 51.9102C12.2553 49.6926 11.5495 47.4729 10.9892 45.2104C9.95162 41.0193 8.44148 34.7674 10.4755 30.7347C11.5912 28.5219 13.2105 27.5512 16.7033 26.9904C25.1187 25.6381 32.2985 24.7316 40.7985 24.113ZM43.2173 47.962C42.6431 48.1921 42.1069 48.3859 41.5766 48.563C38.9159 49.4465 37.1404 49.4829 34.4278 49.5139C34.2651 50.4654 34.165 51.1696 34.149 51.8181C34.0735 54.9866 35.1459 56.4267 37.1066 57.0271C38.735 57.5274 40.6824 57.4065 42.3851 57.384C42.8057 57.3262 43.2269 57.2684 43.648 57.2106C42.9492 55.8642 42.6607 54.8903 42.4558 53.7553C41.9731 51.0866 41.9458 50.2438 43.2173 47.962ZM67.2258 13.2274C67.8289 11.6178 68.357 9.95461 68.5523 8.45572C68.6936 7.36513 68.6048 6.27507 67.8877 5.31131C67.3654 4.60815 65.8473 4.10941 65.6578 5.81219C65.5626 6.61702 65.4663 7.42078 65.371 8.22561C64.0284 12.017 62.842 13.305 59.7853 15.8132C58.0034 17.2757 56.1454 18.4663 53.664 19.4082C52.1651 19.9775 50.754 20.2034 48.1966 20.3173C47.6797 20.3173 47.1617 20.3173 46.6448 20.3173C45.7115 20.3173 45.3872 20.5619 44.8499 21.302C43.3987 23.305 42.6136 24.8349 41.4535 27.2365C40.1033 30.0326 38.864 32.8249 37.6546 35.8275C38.6376 36.5044 42.8218 38.8477 42.551 39.8324C42.3958 40.3953 41.7553 40.1599 41.0158 39.9062C39.6854 39.0714 38.399 38.2243 37.0943 37.3494C36.9648 37.7898 36.8359 38.2302 36.7064 38.6706C37.8628 39.613 40.2527 41.1616 41.0527 42.0441C41.3925 42.4186 41.5867 42.8318 40.7193 42.8318C40.4978 42.8318 40.243 42.7857 40.0097 42.6926C38.6146 42.0253 37.3972 41.2296 36.0931 40.4012L35.6741 41.7963C36.5565 42.5803 37.4759 43.0876 38.3107 43.7174C38.7163 44.024 38.9571 44.1626 39.0492 44.3173C39.6052 45.2425 38.6018 45.0129 37.7274 44.6892C36.8696 44.3724 36.1327 43.9523 35.3295 43.5248C35.071 45.0467 34.8125 46.5696 34.5535 48.091C36.8573 47.9931 38.0281 48.0514 39.6758 47.6436C42.0587 47.055 43.8086 46.3422 44.6568 44.3911C45.1346 43.292 44.9955 42.8767 45.0351 41.7583C45.1191 39.3443 45.5488 39.4203 47.3067 40.3943C48.392 41.2435 49.9636 42.2469 50.9054 43.0843C51.2667 43.4065 51.5026 43.7586 51.5026 44.229C51.5026 44.8834 51.1719 44.9744 50.5833 45.1585C49.4788 45.5015 47.9162 45.54 46.7101 46.012C42.657 47.5987 43.1943 54.0165 45.3551 57.2556C48.0045 56.8976 50.5544 56.569 53.1102 55.7048C52.239 54.9866 51.3678 54.268 50.4961 53.5504C49.8834 53.1003 49.2712 52.6497 48.6579 52.2002C47.4496 50.9935 48.2041 50.0678 49.1978 50.5135C49.4981 50.6478 49.7474 50.8769 50.152 51.1369C51.7889 52.5058 53.4264 53.8752 55.0628 55.2451C55.5514 55.1103 56.0395 54.977 56.528 54.8422C55.1651 53.6151 53.9225 52.4164 52.4412 51.3365C51.965 50.9892 51.5144 50.589 51.4368 50.1416C51.3469 49.6268 51.4609 49.4727 51.9687 49.4299C52.9678 49.3459 54.2034 50.8635 54.9483 51.511C56.0683 52.4972 57.1884 53.4824 58.3095 54.4692C58.797 54.2969 59.2855 54.124 59.7736 53.9517C58.8259 53.1865 57.8776 52.4202 56.931 51.6539C56.3076 51.0701 55.6863 50.4857 55.0628 49.9024C54.5957 49.3994 54.3982 49.3362 54.3661 49.0098C54.3153 48.4859 54.5855 48.2986 54.9799 48.2885C55.5814 48.2751 55.8099 48.6475 56.2755 49.0387C57.8835 50.3915 61.235 53.2491 61.6701 53.6066C64.9884 52.653 68.0862 51.6582 71.35 50.5333C71.6614 49.3839 71.9771 48.2788 72.3079 47.1786C74.6271 39.4883 81.4596 35.7638 89.2334 35.8066C89.7739 35.8093 90.0313 35.82 90.5536 35.9393C90.8233 36.0025 90.8666 35.965 91.0202 35.6958C91.9321 34.0974 90.0505 33.4499 88.8294 33.3975C87.3134 33.3306 85.7417 33.398 84.1663 33.4852C80.7404 33.6763 77.3397 33.8523 73.9191 33.3819C70.6495 32.9314 67.6373 31.753 65.9741 28.4213C65.3774 27.2285 65.0109 26.2289 64.8091 25.1843C64.6299 24.2505 64.5801 23.2814 64.6159 22.1015C64.7278 18.4851 66.0233 16.4318 67.2258 13.2274ZM62.2036 45.2441C62.0618 46.2389 62.4176 46.7612 63.2123 46.5092C63.7699 46.3326 63.8058 46.1207 63.939 45.5631C64.1868 44.5319 63.9684 43.5076 63.5521 42.4716C62.7403 40.451 59.8854 39.0618 57.7733 39.6435C56.4467 40.0084 56.6243 41.0931 57.6026 41.4281C58.1323 41.6095 58.5176 41.4099 58.9634 41.4479C60.8829 41.6138 62.4899 43.2524 62.2036 45.2441ZM51.2126 32.9474C51.1361 33.6115 50.997 34.2376 51.3491 34.5758C51.7863 34.997 52.1362 34.8145 52.3883 34.4822C52.5242 34.3018 52.6018 34.1038 52.6473 33.8946C52.8383 32.9999 52.6419 32.0388 52.3214 31.166C51.5952 29.194 48.9319 27.5758 47.2709 28.1275C46.9717 28.2265 46.823 28.3138 46.7416 28.4411C46.3456 29.0678 46.7528 29.4595 47.2393 29.7158C47.5373 29.8731 47.8777 29.803 48.1255 29.8576C49.6762 30.1974 51.1398 30.9193 51.2126 32.9474Z" fill="#2B2A29"/>
</svg>
