<svg width="19" height="19" viewBox="0 0 19 19" fill="none" xmlns="http://www.w3.org/2000/svg">
<path d="M1.15518 1.05234C2.00836 0.201464 2.96474 -0.217881 3.29583 0.113215L3.29722 0.114596L9.07698 5.97032L14.9175 0.205746C15.2512 -0.123248 16.2119 0.301213 17.0637 1.15454C17.9141 2.00655 18.3341 2.9639 18.0035 3.2945L18.0021 3.29589L12.145 9.07704L17.9117 14.9183C18.2407 15.2519 17.8157 16.2133 16.9622 17.0651C16.1102 17.9154 15.1535 18.3348 14.8229 18.0043L14.8215 18.0029L9.03762 12.1444L3.19778 17.9097C2.86395 18.2393 1.90268 17.815 1.0516 16.9622C0.20071 16.1091 -0.218625 15.1527 0.112472 14.8216L0.113853 14.8202L5.97096 9.03768L0.207766 3.19852C-0.12188 2.86466 0.302241 1.90348 1.15518 1.05234Z" fill="#2B2A29"/>
</svg>
